<svg width="153" height="34" viewBox="0 0 153 34" fill="none" xmlns="http://www.w3.org/2000/svg">
<g clip-path="url(#clip0_964_17554)">
<g clip-path="url(#clip1_964_17554)">
<path d="M48.2417 31.3829L54.4056 31.5106C52.2812 30.7763 50.2212 29.8824 48.2417 28.8289V31.3829ZM57.5278 30.5369V31.3829L54.4056 31.5106C60.2798 33.5059 65.6551 33.7773 69.6464 32.6599C66.4437 32.6918 62.2754 32.2449 57.5278 30.5369ZM123.335 12.1482C125.894 12.1482 127.986 10.089 127.986 7.53501C127.986 4.98102 125.91 3.62421 123.335 3.62421C120.776 3.62421 118.684 4.99698 118.684 7.53501C118.684 10.073 120.76 12.1482 123.335 12.1482ZM118.668 31.3829H127.986V13.7444H118.668V31.3829ZM106.807 31.3829H116.125V0.208246L106.807 4.56599V31.3829ZM101.818 12.3237C98.8887 9.41858 93.7065 9.59416 93.7065 9.59416C93.7065 9.59416 88.5082 9.41858 85.5953 12.3237C82.6662 15.2289 82.8915 17.735 82.8915 20.72C82.8915 23.705 82.6662 26.1951 85.5953 29.1003C88.5243 32.0054 93.7065 31.8298 93.7065 31.8298C93.7065 31.8298 98.9048 32.0054 101.818 29.1003C104.747 26.1951 104.522 23.705 104.522 20.72C104.505 17.719 104.731 15.2129 101.818 12.3237ZM95.4125 23.8007C95.4125 24.3754 95.1228 25.796 93.6904 25.796C92.2581 25.796 91.9684 24.3754 91.9684 23.8007V17.3519C91.9684 15.9632 93.1432 15.612 93.6904 15.612C94.2376 15.612 95.4125 15.9472 95.4125 17.3519V23.8007ZM78.3209 12.3237C75.3918 9.41858 70.2096 9.59416 70.2096 9.59416C70.2096 9.59416 65.0275 9.41858 62.0984 12.3237C61.7926 12.627 61.5029 12.9463 61.2454 13.2815C55.0976 8.55661 49.5775 5.85895 44.8137 3.52843V0.22421L41.1926 1.91623C32.4376 -1.61147 26.8692 -0.988936 25.5334 1.93219C25.5334 1.93219 21.5261 7.16787 35.4793 19.6186V31.3829H44.7976V26.8176C43.7515 26.1472 42.7054 25.4289 41.6754 24.6467C39.2936 22.8589 37.2657 21.1989 35.4954 19.6345V14.6862C37.6037 17.0327 40.404 19.6984 44.0895 22.7153L44.8137 23.2899V18.5331C44.8137 17.4317 45.0873 15.628 46.5518 15.628C48.0164 15.628 48.2578 16.7294 48.2578 18.0223V25.796C51.1546 27.7435 54.2607 29.3237 57.5439 30.5209V15.5322C57.5439 12.5472 55.3873 9.56224 51.0098 9.56224C48.467 9.54628 46.1012 10.8712 44.8137 13.058V4.39041C51.557 7.72656 58.3164 11.8129 60.8914 13.6965C59.2498 16.027 59.3946 18.182 59.3946 20.6721C59.3946 23.6571 59.1693 26.1472 62.0984 29.0524C65.0275 31.9575 70.2096 31.782 70.2096 31.782C70.2096 31.782 75.4079 31.9575 78.3209 29.0524C81.25 26.1472 81.0085 23.6571 81.0085 20.6721C81.0085 17.719 81.25 15.2129 78.3209 12.3237ZM35.4793 4.56599V14.6702C27.6417 5.97069 29.2189 2.53876 29.8143 2.04393C31.987 0.224209 35.8495 0.766933 40.1787 2.37914L35.4793 4.56599ZM71.9317 23.8007C71.9317 24.3754 71.642 25.796 70.2096 25.796C68.7773 25.796 68.4876 24.3754 68.4876 23.8007V17.3519C68.4876 15.9632 69.6625 15.612 70.2096 15.612C70.7568 15.612 71.9317 15.9472 71.9317 17.3519V23.8007Z" fill="#737373"/>
</g>
</g>
<defs>
<clipPath id="clip0_964_17554">
<rect width="153" height="34" fill="white"/>
</clipPath>
<clipPath id="clip1_964_17554">
<rect width="103" height="34" fill="white" transform="translate(25)"/>
</clipPath>
</defs>
</svg>
